<svg width="37" height="45" viewBox="0 0 37 45" fill="none" xmlns="http://www.w3.org/2000/svg">
<path d="M9.5332 13.459C9.5332 8.9959 13.5781 4.58403 16.4155 2.03889C17.1628 1.3699 18.1305 1 19.1335 1C20.1364 1 21.1042 1.3699 21.8514 2.03889C24.6888 4.58617 28.7338 8.99376 28.7338 13.4611C28.7338 17.8346 25.0985 22.336 19.1335 22.336C13.1685 22.336 9.5332 17.8346 9.5332 13.459Z" stroke="white" stroke-width="2"/>
<path d="M1 26.603H6.10948C6.7367 26.603 7.35539 26.7438 7.91647 27.0169L12.2729 29.1247C12.8339 29.3956 13.4526 29.5364 14.082 29.5364H16.305C18.4554 29.5364 20.2006 31.2239 20.2006 33.3061C20.2006 33.3914 20.143 33.464 20.0598 33.4874L14.6388 34.9872C13.6661 35.2559 12.6289 35.1619 11.7203 34.7227L7.06311 32.4698" stroke="white" stroke-width="2" stroke-linecap="round" stroke-linejoin="round"/>
<path d="M20.2006 31.9365L29.9992 28.9263C30.8523 28.6645 31.7662 28.6789 32.6106 28.9674C33.455 29.2559 34.1867 29.8037 34.7013 30.5327C35.4885 31.6208 35.1685 33.1824 34.0207 33.8438L17.9882 43.0963C17.4869 43.3864 16.9318 43.5713 16.3567 43.6399C15.7816 43.7085 15.1985 43.6593 14.6431 43.4953L1 39.4461" stroke="white" stroke-width="2" stroke-linecap="round" stroke-linejoin="round"/>
</svg>
