<svg width="45" height="40" viewBox="0 0 45 40" fill="none" xmlns="http://www.w3.org/2000/svg">
<path fill-rule="evenodd" clip-rule="evenodd" d="M24.281 0.716129C24.3479 0.861701 24.3848 1.01877 24.3898 1.17837C24.3947 1.33796 24.3675 1.49694 24.3098 1.64622C24.252 1.7955 24.1648 1.93216 24.0532 2.04837C23.9416 2.16458 23.8077 2.25806 23.6592 2.32348C22.5743 2.80242 21.653 3.57777 21.0054 4.55681C20.3579 5.53584 20.0116 6.67711 20.0079 7.84413V7.88665C20.0159 9.43753 20.6283 10.9267 21.7197 12.0489C22.811 13.1711 24.2986 13.8413 25.8775 13.9223C27.4565 14.0032 29.0072 13.4887 30.2118 12.4842C31.4165 11.4797 32.1838 10.0612 32.3566 8.51963C32.3916 8.19902 32.5549 7.90518 32.8108 7.70274C33.0667 7.5003 33.394 7.40585 33.7209 7.44016C34.0477 7.47448 34.3473 7.63475 34.5537 7.88572C34.7601 8.13669 34.8563 8.4578 34.8214 8.77841C34.6311 10.5265 33.8908 12.1731 32.7034 13.4899C34.5305 13.8948 36.1748 14.8692 37.3902 16.2672C37.4959 16.3886 37.5762 16.5292 37.6266 16.6809C37.6769 16.8327 37.6963 16.9928 37.6836 17.1519C37.6709 17.311 37.6263 17.4661 37.5525 17.6084C37.4787 17.7506 37.377 17.8772 37.2533 17.9809C37.1296 18.0846 36.9863 18.1634 36.8316 18.2128C36.6768 18.2622 36.5137 18.2812 36.3515 18.2687C36.1892 18.2562 36.0311 18.2125 35.8861 18.1401C35.7411 18.0677 35.612 17.968 35.5063 17.8467C34.4811 16.6637 33.033 15.9106 31.4595 15.7422C29.8859 15.5738 28.3063 16.0029 27.0452 16.9412C25.7841 17.8795 24.9371 19.2559 24.6782 20.7877C24.4194 22.3194 24.7683 23.8903 25.6533 25.1775L25.662 25.1873C25.7976 25.3603 25.8832 25.5659 25.9097 25.7826C26.3222 25.8336 26.7161 26.0292 27.0096 26.3609C27.292 26.6816 27.5488 27.0085 27.78 27.3413C28.2296 27.9853 28.1702 28.8211 27.6921 29.3958C28.0628 29.3879 28.4265 29.4959 28.7305 29.7043C29.0344 29.9127 29.2629 30.2106 29.3827 30.5548C29.6428 31.2996 29.8435 32.0273 30.0144 32.6883C30.0951 32.9966 30.0867 33.3209 29.99 33.6248C29.8933 33.9286 29.7121 34.2001 29.467 34.4086C30.0528 34.4912 30.5817 34.8618 30.8306 35.434C31.0598 35.9601 31.279 36.2164 31.4821 36.3573C31.8091 36.5833 32.0321 36.8992 32.1423 37.2467C32.4185 36.8895 32.8371 36.6392 33.3276 36.5809C33.5919 36.5501 33.8887 36.4999 34.2182 36.4302C34.721 36.3221 35.2202 36.4387 35.6079 36.7109C35.7433 36.5215 35.9311 36.374 36.1491 36.2857L36.4885 36.1459C36.7997 36.0015 37.0778 35.7968 37.3062 35.5442C37.5346 35.2915 37.7085 34.9962 37.8175 34.6759C38.064 33.9469 38.0429 32.8899 37.332 31.5377C37.2538 31.3956 37.2053 31.2397 37.1892 31.079C37.1732 30.9184 37.1899 30.7562 37.2385 30.6019C37.2871 30.4477 37.3666 30.3044 37.4722 30.1807C37.5779 30.0569 37.7076 29.955 37.8539 29.8809C38.0002 29.8069 38.16 29.7622 38.3241 29.7495C38.4882 29.7367 38.6532 29.7562 38.8095 29.8067C38.9658 29.8572 39.1103 29.9378 39.2345 30.0437C39.3587 30.1497 39.4602 30.2788 39.5329 30.4236C40.0383 31.3834 40.3269 32.3262 40.4123 33.2204C41.3346 32.1286 42.0772 30.9021 42.6133 29.5853C42.6747 29.4375 42.7652 29.303 42.8796 29.1895C42.994 29.076 43.1301 28.9856 43.28 28.9237C43.43 28.8618 43.591 28.8294 43.7537 28.8285C43.9164 28.8276 44.0777 28.8581 44.2284 28.9183C44.3791 28.9786 44.5162 29.0673 44.632 29.1795C44.7477 29.2917 44.8398 29.4252 44.9029 29.5723C44.966 29.7194 44.999 29.8773 45 30.0369C45.0009 30.1965 44.9698 30.3548 44.9084 30.5026C44.133 32.3675 43.1694 33.7951 42.2417 34.8605C42.8449 34.9298 43.4803 35.0756 44.1665 35.3101C44.4769 35.4156 44.7319 35.6378 44.8753 35.9277C45.0188 36.2176 45.0389 36.5516 44.9313 36.8561C44.8237 37.1606 44.5972 37.4107 44.3017 37.5514C44.0061 37.6921 43.6656 37.7118 43.3552 37.6063C42.1228 37.1859 41.2471 37.1689 40.3938 37.3439C39.5986 37.5055 38.817 37.825 37.7258 38.2733L37.4942 38.3681C37.3514 38.434 37.2055 38.4932 37.057 38.5454C36.8057 38.6378 36.5305 38.6476 36.273 38.5734C36.1869 38.8725 36.0195 39.1431 35.7887 39.356C35.5578 39.569 35.2722 39.7163 34.9626 39.7822C34.539 39.8729 34.1327 39.9414 33.7438 39.9876C33.3381 40.0358 32.928 39.9429 32.5849 39.7251C32.2418 39.5074 31.9875 39.1785 31.8661 38.7957C31.5924 39.1508 31.1885 39.3874 30.7399 39.4555C30.2914 39.5235 29.8335 39.4176 29.4632 39.1602C28.538 38.5187 27.9856 37.6355 27.614 36.7826C27.4678 36.4486 27.4336 36.0777 27.5164 35.7235C27.5993 35.3692 27.7948 35.05 28.0748 34.812C27.7317 34.7646 27.4108 34.6183 27.1527 34.3916C26.8947 34.1649 26.7112 33.868 26.6256 33.5387C26.4675 32.9081 26.2836 32.2839 26.0745 31.6677C25.9778 31.3917 25.9545 31.0961 26.007 30.8088C26.0594 30.5216 26.1858 30.2522 26.3742 30.0263C26.0836 30.0325 25.796 29.9673 25.5376 29.8369C25.2791 29.7064 25.0579 29.5147 24.8941 29.2792C24.7313 29.0453 24.5547 28.821 24.3652 28.6073C24.1687 28.3852 24.0338 28.1171 23.9735 27.829C23.9131 27.5409 23.9295 27.2424 24.0209 26.9623C23.8792 26.875 23.757 26.7606 23.6617 26.6257L23.6493 26.6051C23.0705 25.8776 22.3301 25.2893 21.4844 24.8851C20.6387 24.4808 19.7101 24.2713 18.7693 24.2724C16.7875 24.2724 15.0238 25.1836 13.8893 26.6051C13.8052 26.7247 13.7181 26.8422 13.6279 26.9574C12.9414 27.9596 12.5748 29.1397 12.5751 30.3471C12.5751 31.5049 12.9046 32.5826 13.4756 33.5023C13.6398 33.7772 13.6874 34.1044 13.608 34.4134C13.5286 34.7225 13.3286 34.9885 13.0511 35.1542C12.7736 35.32 12.4409 35.3721 12.1245 35.2995C11.8082 35.2268 11.5337 35.0351 11.3601 34.7658C10.4008 33.223 9.96979 31.4196 10.1301 29.6193C8.50608 30.2925 6.71195 30.4662 4.98506 30.1175C4.6633 30.0525 4.38101 29.8649 4.2003 29.5958C4.01959 29.3267 3.95525 28.9982 4.02144 28.6826C4.08763 28.367 4.27893 28.0901 4.55325 27.9129C4.82758 27.7356 5.16245 27.6725 5.48421 27.7374C5.89047 27.82 6.30993 27.8617 6.74261 27.8625C8.72435 27.8625 10.4881 26.9514 11.6226 25.5299C11.7069 25.4092 11.794 25.2918 11.884 25.1775C12.7578 23.9035 13.1073 22.3522 12.8622 20.8356C12.6171 19.319 11.7956 17.9498 10.5629 17.0033C9.33028 16.0568 7.77794 15.6034 6.21823 15.7341C4.65851 15.8649 3.20715 16.5702 2.15613 17.7082C1.93522 17.9468 1.62672 18.0895 1.29851 18.105C0.9703 18.1205 0.649257 18.0075 0.406008 17.7908C0.162758 17.5741 0.0172287 17.2715 0.00143363 16.9495C-0.0143614 16.6276 0.100872 16.3127 0.321784 16.0741C1.51965 14.7783 3.09572 13.8763 4.83519 13.4911C3.68716 12.2151 2.95584 10.6306 2.73579 8.94243C2.69933 8.62508 2.79172 8.30642 2.99297 8.05539C3.19421 7.80435 3.48813 7.64114 3.81113 7.60106C4.13412 7.56097 4.46022 7.64725 4.71886 7.84121C4.9775 8.03517 5.14788 8.32123 5.19314 8.63748C5.39605 10.1649 6.18283 11.5598 7.39434 12.5399C8.60585 13.5199 10.1516 14.012 11.719 13.9166C13.2863 13.8212 14.7582 13.1455 15.8369 12.026C16.9156 10.9066 17.5206 9.427 17.5295 7.88665V7.84413C17.5258 6.69628 17.1906 5.57295 16.5628 4.60427C15.935 3.6356 15.0402 2.86122 13.9821 2.37086C13.8351 2.30258 13.7032 2.20655 13.594 2.08827C13.4848 1.96999 13.4004 1.83176 13.3457 1.68149C13.2909 1.53122 13.2669 1.37184 13.2749 1.21246C13.283 1.05308 13.323 0.896807 13.3926 0.752576C13.4622 0.608346 13.5601 0.478978 13.6807 0.371858C13.8013 0.264739 13.9422 0.181966 14.0954 0.128265C14.2486 0.074564 14.4111 0.0509873 14.5735 0.0588808C14.736 0.0667744 14.8953 0.105983 15.0424 0.174269C16.5892 0.893677 17.8855 2.04438 18.7693 3.48253C19.6813 1.9981 21.0321 0.820956 22.6423 0.107448C22.7907 0.0418201 22.9507 0.00550503 23.1134 0.000578807C23.276 -0.00434742 23.4381 0.0222113 23.5902 0.0787378C23.7424 0.135264 23.8818 0.22065 24.0003 0.330017C24.1188 0.439383 24.2142 0.570587 24.281 0.716129ZM18.7693 20.0177C19.0172 20.024 19.2639 19.9815 19.4949 19.8928C19.7258 19.8041 19.9363 19.6709 20.1139 19.5011C20.2915 19.3313 20.4327 19.1284 20.5291 18.9042C20.6255 18.68 20.6751 18.4392 20.6751 18.1959C20.6751 17.9527 20.6255 17.7119 20.5291 17.4877C20.4327 17.2635 20.2915 17.0606 20.1139 16.8908C19.9363 16.721 19.7258 16.5878 19.4949 16.4991C19.2639 16.4104 19.0172 16.3679 18.7693 16.3742C18.2765 16.3742 17.804 16.5662 17.4556 16.9079C17.1071 17.2497 16.9114 17.7132 16.9114 18.1966C16.9114 18.6799 17.1071 19.1434 17.4556 19.4852C17.804 19.827 18.2765 20.0177 18.7693 20.0177Z" fill="white"/>
</svg>
